<svg height="512" width="512" viewBox="0 0 512 512" xmlns="http://www.w3.org/2000/svg"><path d="M300 0h-88c-24.262 0-44 19.738-44 44v36h-56c-35.29 0-64 28.71-64 64 0 32.579 24.475 59.531 56 63.482V448c0 35.29 28.71 64 64 64h176c35.29 0 64-28.71 64-64V207.482c31.525-3.952 56-30.903 56-63.482 0-35.29-28.71-64-64-64h-56V44c0-24.262-19.738-44-44-44zm-84 48h80v32h-80zm144 400c0 8.822-7.178 16-16 16H168c-8.822 0-16-7.178-16-16V208h208zm56-304c0 8.822-7.178 16-16 16H112c-8.822 0-16-7.178-16-16s7.178-16 16-16h288c8.822 0 16 7.178 16 16z"/><path d="M208 400c13.255 0 24-10.745 24-24v-96c0-13.255-10.745-24-24-24s-24 10.745-24 24v96c0 13.255 10.745 24 24 24zM304 400c13.255 0 24-10.745 24-24v-96c0-13.255-10.745-24-24-24s-24 10.745-24 24v96c0 13.255 10.745 24 24 24z"/></svg>
