<svg height="383pt" viewBox="0 -16 383.926 383" width="383pt" xmlns="http://www.w3.org/2000/svg"><path d="M173.34 340.031a502.12 502.12 0 014.984 5.25l2.016 2.153a16 16 0 0023.238 0l2.027-2.153c1.489-1.578 3.141-3.344 5.094-5.37 41.067-43.31 138.778-147.888 159.313-183.454v-.008c28.672-49.687 11.601-113.433-38.047-142.097-48.512-27.97-110.442-12.32-140 34.57-29.61-46.906-91.504-62.516-140-34.57-49.656 28.671-66.723 92.418-38.05 142.113C34.46 192.023 132.171 296.602 173.34 340.03zM67.95 42.078c11.312-6.512 23.663-9.605 35.87-9.605 24.934 0 49.223 12.925 62.582 36.03 1.664 2.856 5.946 12.802 9.672 43.298.985 8.023 7.801 14.054 15.883 14.054 8.078 0 14.895-6.03 15.879-14.054 3.734-30.504 8.008-40.442 9.703-43.344 19.856-34.379 64.016-46.2 98.426-26.379 34.367 19.832 46.168 63.969 26.32 98.387-15.023 26.039-86.723 105.445-150.32 172.703-63.672-67.344-135.305-146.68-150.336-172.695-19.848-34.418-8.043-78.551 26.32-98.395zm0 0"/><path d="M283.277 139.742a15.927 15.927 0 0011.309 4.692 15.93 15.93 0 0011.312-4.692c18.723-18.71 18.723-49.168 0-67.879-6.246-6.246-16.375-6.246-22.62 0-6.25 6.25-6.25 16.375 0 22.625 6.23 6.239 6.23 16.39 0 22.633-6.25 6.246-6.25 16.375 0 22.621zm0 0"/></svg>