<svg height="383pt" viewBox="0 0 383 383.984" width="383pt" xmlns="http://www.w3.org/2000/svg"><path d="M248.469 0c-74.992 0-136 61.008-136 136 0 21.352 5.082 41.488 13.89 59.488l-33.183 33.184c-.012.008-.012.008-.02.008s-.008.007-.008.015L11.164 310.68c-14.23 14.23-14.23 37.39 0 51.625l11 11c7.121 7.12 16.465 10.68 25.816 10.68 9.356 0 18.7-3.56 25.817-10.68l115.191-115.192c17.992 8.809 38.13 13.887 59.48 13.887 74.993 0 136-61.008 136-136s-61.007-136-136-136zM51.164 350.68a4.52 4.52 0 01-6.375 0l-11-11a4.513 4.513 0 010-6.375l70.68-70.68L121.848 280zm93.305-93.305L127.094 240l16.976-16.977a136.604 136.604 0 0017.368 17.368zm104-17.375c-57.344 0-104-46.656-104-104s46.656-104 104-104 104 46.656 104 104-46.656 104-104 104zm0 0"/><path d="M296.469 136c0 26.473-21.528 48-48 48-8.832 0-16 7.168-16 16s7.168 16 16 16c44.113 0 80-35.887 80-80 0-8.832-7.168-16-16-16s-16 7.168-16 16zm0 0"/></svg>